<svg version="1.1" id="Layer_1" xmlns="http://www.w3.org/2000/svg" xmlns:xlink="http://www.w3.org/1999/xlink" x="0px" y="0px"
	 width="100%" viewBox="0 0 496 496" enable-background="new 0 0 496 496" xml:space="preserve">
<path fill="#000000" opacity="1.000000" stroke="none" 
	d="
M280.000000,497.000000 
	C186.666687,497.000000 93.833374,497.000000 1.000050,497.000000 
	C1.000033,331.666718 1.000033,166.333450 1.000017,1.000139 
	C166.333237,1.000092 331.666473,1.000092 496.999756,1.000046 
	C496.999847,166.333191 496.999847,331.666382 496.999939,496.999786 
	C424.833344,497.000000 352.666656,497.000000 280.000000,497.000000 
M128.288895,54.504353 
	C125.045540,66.149651 121.380234,77.696732 118.642326,89.459679 
	C111.915573,118.359917 103.315811,146.757416 95.992348,175.498230 
	C88.959129,203.099991 80.828087,230.420609 73.322006,257.903687 
	C67.343872,279.792328 61.612217,301.748108 55.710155,323.657684 
	C52.010208,337.392609 48.281887,351.121185 44.383465,364.800507 
	C43.222717,368.873535 44.276642,371.463074 48.423244,372.098663 
	C52.888165,372.782959 57.063477,374.377686 61.381714,375.510590 
	C75.442657,379.199524 89.521164,382.823608 103.555466,386.611389 
	C117.906143,390.484589 132.089600,395.063843 146.569748,398.348907 
	C164.481796,402.412506 181.968201,407.934937 199.696411,412.609741 
	C219.362885,417.795624 238.846115,423.732605 258.633118,428.391174 
	C283.111603,434.154266 307.050262,441.861725 331.497894,447.711548 
	C343.247711,450.523041 354.786377,454.225616 366.394684,457.613800 
	C369.108856,458.406006 371.179840,458.139862 371.521973,454.974915 
	C372.187561,448.817444 374.634186,443.125031 376.137512,437.201782 
	C382.167450,413.442871 388.962891,389.879517 395.312256,366.200134 
	C401.832458,341.883575 408.302460,317.551788 414.527252,293.158478 
	C418.792206,276.445282 424.189331,260.051117 428.489838,243.371017 
	C433.783447,222.839218 439.916901,202.545059 445.257446,182.024719 
	C449.004333,167.627930 453.179779,153.293961 457.320068,138.976456 
	C459.196991,132.485931 458.632660,131.596268 452.213989,129.746826 
	C437.906525,125.624336 423.590515,121.520134 409.204834,117.682747 
	C377.245789,109.157692 345.240021,100.807686 313.256744,92.373352 
	C296.320709,87.907143 279.277679,83.799042 262.491333,78.826004 
	C245.193481,73.701439 227.571640,69.861565 210.282028,64.684013 
	C186.817932,57.657455 162.840836,52.421307 139.405228,45.233906 
	C133.061829,43.288460 130.876190,44.552235 129.308701,50.853313 
	C129.068253,51.819893 128.749374,52.766964 128.288895,54.504353 
z"/>
<path fill="#000000" opacity="1.000000" stroke="none" 
	d="
M215.892120,251.266388 
	C219.462097,238.968323 222.994156,227.083069 226.257187,215.124420 
	C227.162292,211.807266 228.174881,210.548447 232.063751,211.271500 
	C251.436981,214.873474 270.087128,221.057175 288.938446,226.541763 
	C291.671661,227.336929 292.263916,228.568375 291.505890,231.249542 
	C287.764648,244.482727 284.168640,257.757050 280.536438,271.020966 
	C278.961823,276.771088 277.707245,282.591949 275.662720,288.236145 
	C274.675842,290.960480 273.620819,291.494537 271.030884,291.001160 
	C257.380585,288.400818 244.186356,284.074097 230.786896,280.527710 
	C225.353226,279.089630 219.920502,277.647919 214.490662,276.195435 
	C211.462143,275.385254 210.604263,273.894897 211.049408,270.412262 
	C211.879517,263.917694 214.634933,258.006805 215.892120,251.266388 
z"/>
</svg>